<svg id="Слой_1" data-name="Слой 1" xmlns="http://www.w3.org/2000/svg" viewBox="0 0 26 26"><defs><style>.cls-1{fill:#fff;}</style></defs><title>font-kholodos</title><rect class="cls-1" width="26" height="26"/><path d="M19.84,17.36,21.2,19.2Q18,21.56,16.28,21.56a2.19,2.19,0,0,1-1.36-.43,2.58,2.58,0,0,1-.84-2.2q0-1.18,0-2.65a3.75,3.75,0,0,1-1.27.23l-.45,0a4.24,4.24,0,0,1-.7-.16l-.16,1.5A4.18,4.18,0,0,1,10,20.58v0a3.35,3.35,0,0,1-2.16.93,2,2,0,0,1-.68-.11,2.68,2.68,0,0,1-1.32-1A5.68,5.68,0,0,1,4.8,17.07l2.29,0a3.33,3.33,0,0,0,.61,2l.18.2a1.47,1.47,0,0,0,.66-.39l0,0a2,2,0,0,0,.68-1.32l.23-2a3.85,3.85,0,0,0-1.25.07l-.52-2.22a6.33,6.33,0,0,1,2-.14l.41-3.72a6.14,6.14,0,0,1,.69-2.2,5.32,5.32,0,0,1,1.55-1.84A3.94,3.94,0,0,1,13.17,5l.2-.09A5.6,5.6,0,0,1,17.89,5l.73.34-1.09,2A5,5,0,0,0,16.64,7a3.23,3.23,0,0,0-2.29,0l0,0a3.2,3.2,0,0,0-1.7,1.86,3.52,3.52,0,0,0-.25.93l-.43,4.19a2.18,2.18,0,0,0,.73.27,2.09,2.09,0,0,0,1.5-.54q0-2.43.14-4.85h2.29q-.2,6.39-.23,10.14a1.12,1.12,0,0,0,0,.32A9,9,0,0,0,19.84,17.36Z"/></svg>