<svg id="Слой_1" data-name="Слой 1" xmlns="http://www.w3.org/2000/svg" viewBox="0 0 26 26"><defs><style>.cls-1{fill:#fff;}</style></defs><title>font-future</title><rect class="cls-1" width="26" height="26"/><path d="M5.5,21c-.15,0-.25,0-.28,0a.48.48,0,0,1,0-.28V13.12a24.9,24.9,0,0,1,.21-3.49,5.15,5.15,0,0,1,1-2.54A4.94,4.94,0,0,1,8.78,5.55,14,14,0,0,1,13.08,5a14,14,0,0,1,4.28.53A4.91,4.91,0,0,1,19.74,7.1a5.16,5.16,0,0,1,1,2.54A24.9,24.9,0,0,1,21,13.12v7.51a.48.48,0,0,1,0,.28.49.49,0,0,1-.28,0h-1c-.16,0-.25,0-.28,0a.48.48,0,0,1,0-.28V17.47c0-.15,0-.25-.05-.28s-.12,0-.28,0H7.15a.47.47,0,0,0-.28,0,.48.48,0,0,0,0,.28v3.16a.48.48,0,0,1,0,.28s-.13,0-.28,0Zm1.32-7.11a.48.48,0,0,0,0,.26s.13.07.28.07H19c.16,0,.25,0,.28,0s.05-.13.05-.28v-.72a7.4,7.4,0,0,0-.28-2.3,2.17,2.17,0,0,0-1-1.24,4.58,4.58,0,0,0-1.92-.51C15.33,9,14.31,9,13.08,9s-2.25,0-3.06.1a4.61,4.61,0,0,0-1.93.51,2.19,2.19,0,0,0-1,1.24,7.43,7.43,0,0,0-.28,2.3Z"/></svg>