<svg id="Слой_1" data-name="Слой 1" xmlns="http://www.w3.org/2000/svg" viewBox="0 0 26 26"><defs><style>.cls-1{fill:#fff;}</style></defs><title>font-snell</title><rect class="cls-1" width="26" height="26"/><path d="M22.41,16.82q-.74.9-1.52,1.68a10.29,10.29,0,0,1-1.56,1.3,2.69,2.69,0,0,1-1.48.52.67.67,0,0,1-.48-.22,1.05,1.05,0,0,1-.22-.76,6.71,6.71,0,0,1,.34-2,15.56,15.56,0,0,1,.92-2.25,24.1,24.1,0,0,1,1.36-2.38q.78-1.21,1.67-2.37t1.84-2.24q.95-1.08,1.87-2l-.22-.28a13.45,13.45,0,0,0-2.69.92A19.52,19.52,0,0,0,19.8,8.12,24,24,0,0,0,17.64,9.7q-1,.83-1.84,1.62t-1.46,1.47l-1,1.12q-.8.9-1.83,2a24.43,24.43,0,0,1-2.17,2A13.15,13.15,0,0,1,7,19.42a5.27,5.27,0,0,1-2.4.62,2.58,2.58,0,0,1-1.34-.32,1.13,1.13,0,0,1-.58-1,1,1,0,0,0,.65-.26.91.91,0,0,0,.31-.74,1,1,0,0,0-.38-.9,1.36,1.36,0,0,0-.78-.26,1.32,1.32,0,0,0-.65.15,1.47,1.47,0,0,0-.45.38,1.5,1.5,0,0,0-.26.5,1.86,1.86,0,0,0-.08.53,2.13,2.13,0,0,0,.82,1.73,3.57,3.57,0,0,0,2.32.67,6.07,6.07,0,0,0,2.68-.62,12.29,12.29,0,0,0,2.44-1.57,22.12,22.12,0,0,0,2.2-2.07l2-2.1H16.1q-.26.5-.52,1t-.47,1.11a8.73,8.73,0,0,0-.34,1.14,5.31,5.31,0,0,0-.13,1.18,1.85,1.85,0,0,0,.62,1.54,2.59,2.59,0,0,0,1.68.5,4.24,4.24,0,0,0,1.26-.18,5.46,5.46,0,0,0,1.09-.47,6,6,0,0,0,1-.68q.45-.39.85-.81.78-.8,1.45-1.61t1.35-1.67l-.14-.14Q23.15,15.92,22.41,16.82ZM16.22,14H13.6q.78-.82,1.7-1.75t1.93-1.82a26.55,26.55,0,0,1,2.1-1.67,14.22,14.22,0,0,1,2.19-1.3l0,0a38.29,38.29,0,0,0-2.93,3.06A21.23,21.23,0,0,0,16.22,14Z"/></svg>