<svg id="Слой_1" data-name="Слой 1" xmlns="http://www.w3.org/2000/svg" viewBox="0 0 26 26"><defs><style>.cls-1{fill:#fff;}</style></defs><title>font-nexa</title><rect class="cls-1" width="26" height="26"/><path d="M6.68,21.56a3.52,3.52,0,0,1-2.83-1,3,3,0,0,1-.56-2.68,4.57,4.57,0,0,1,2.55-3.22,8.64,8.64,0,0,1,4.79-.88q.88-2.1,1.35-3.16a27.52,27.52,0,0,1,1.28-2.45A12.17,12.17,0,0,1,14.86,6a4.6,4.6,0,0,1,1.71-1.18,3.13,3.13,0,0,1,1.67-.22,2.13,2.13,0,0,1,1.25.72A2.21,2.21,0,0,1,20,6.79a35,35,0,0,1-1.36,7.72,5.61,5.61,0,0,0,3.85-1.44.32.32,0,0,1,.43-.06.56.56,0,0,1,.28.39.69.69,0,0,1,0,.45A6.51,6.51,0,0,1,18.4,16q-1,4.17-1.07,4.92-.27.51-1.41.51t-1.34-.51q.22-1.46,1.1-4.87-.39,0-3.12-.32a16,16,0,0,1-2.5,4.37A4.35,4.35,0,0,1,6.68,21.56Zm.07-1.73a2,2,0,0,0,1.61-1,21.22,21.22,0,0,0,1.58-3.28,4.7,4.7,0,0,0-2.56.57,3.16,3.16,0,0,0-1.46,1.84,2,2,0,0,0,0,1.3A.83.83,0,0,0,6.75,19.83ZM16,14.47q1.32-4.73,1.75-7.26.12-.71-.24-.82t-.9.5a11.24,11.24,0,0,0-1.34,2.18q-.71,1.42-1,2.25l-1.07,2.8Q14.91,14.39,16,14.47Z"/></svg>