<svg id="Слой_1" data-name="Слой 1" xmlns="http://www.w3.org/2000/svg" viewBox="0 0 26 26"><defs><style>.cls-1{fill:#fff;}</style></defs><title>font-academic</title><rect class="cls-1" width="26" height="26"/><path d="M8.26,19.09a1.37,1.37,0,0,0,1.33,1.45v.87H5.36v-.87q.87-.29,1.5-1.87L11,8.34A3.81,3.81,0,0,0,11.31,7c0-.32-.18-.51-.53-.56l-.22,0h-.27V5.51a3.55,3.55,0,0,0,2.42-1.09c.11-.11.17-.19.17-.22h.95l5.4,13.27q.24.56.48,1a8.55,8.55,0,0,0,.51.9,11.29,11.29,0,0,0,.94,1.14v.87h-6.1v-.87q1.14,0,1.14-1.26a1.37,1.37,0,0,0-.07-.48l-.75-2H9l-.53,1.43a1.84,1.84,0,0,0-.13.42C8.32,18.83,8.29,19,8.26,19.09Zm6.51-3.53L12.18,9,9.64,15.56Z"/></svg>