<svg id="Слой_1" data-name="Слой 1" xmlns="http://www.w3.org/2000/svg" viewBox="0 0 283.46 31.34"><defs><style>.cls-1{fill:#222220;}</style></defs><title>header-logo</title><path class="cls-1" d="M5.28.14C4.54.14.69.18,0,.27L0,.46C.73.5,1.38.92,1.42,2.25c.14,2.89.09,6,.09,13.08s0,10.1-.09,13.08a2.06,2.06,0,0,1-1.42,2l0,.18a16.94,16.94,0,0,1,2.66-.18,16.74,16.74,0,0,1,2.62.18l0-.18a2.06,2.06,0,0,1-1.42-2c-.14-3-.09-4.08-.09-11.24.5,0,.92,0,1.42,0,7.85,0,12.89-2.94,12.89-9C18.17,3.95,14.32.14,5.28.14ZM6,16.34c-.73,0-1.42,0-2.11-.09,0-6,0-12.67.09-15.37,7.48,0,11.7,1.33,11.7,7.34C15.65,13.13,12.8,16.34,6,16.34Z"/><path class="cls-1" d="M32.08,29.69c-1.51,0-3,0-4.45,0-.14-2.94-.09-7.21-.09-14.32v-.09c11.15,0,11.29.18,11.89,1.51l.18,0a8.06,8.06,0,0,1-.14-1.84,7.67,7.67,0,0,1,.14-1.79l-.18,0c-.51,1.15-.78,1.51-11.89,1.51,0-6.75,0-10.65.09-13.54C29.19.92,30.75.87,32.26.87c4,0,7.62.46,9.87,2.34L42.36,3a12.64,12.64,0,0,1-.73-2.8H26.39A16.94,16.94,0,0,1,23.73,0l0,.23A2,2,0,0,1,25.1,2.2c.14,2.94.09,6,.09,13.12s0,10.14-.09,13.08a2.06,2.06,0,0,1-1.42,2l0,.18a16.94,16.94,0,0,1,2.66-.18h16.8a19,19,0,0,1,1.38-3l-.23-.14C41.58,29.32,37,29.69,32.08,29.69Z"/><path class="cls-1" d="M69.39,29.87c-1.84,0-3.44-3-5.23-6.29s-4-7.21-6.88-7.8c5-.73,9.09-3.12,9.09-8.08,0-4.18-3.58-7.57-11.93-7.57-.73,0-4.59,0-5.28.14l0,.18c.69,0,1.33.46,1.38,1.79.14,2.89.09,6,.09,13.08s0,10.1-.09,13.08a2.06,2.06,0,0,1-1.42,2l0,.18a16.94,16.94,0,0,1,2.66-.18,16.74,16.74,0,0,1,2.62.18l0-.18a2.06,2.06,0,0,1-1.42-2C53,25.47,53,23.13,53,16a27.29,27.29,0,0,0,2.75,0,3.65,3.65,0,0,1,1.15.23c2.39.87,3.63,4,5,7.21,1.47,3.67,2.94,7.39,5.69,7.39A3.57,3.57,0,0,0,70,30.06l-.09-.28A4.13,4.13,0,0,1,69.39,29.87ZM54.93,15.14c-.69,0-1.33,0-1.93-.09C53,9,53,3.63,53.1.87c7,0,10.74,1.65,10.74,6.84C63.83,12.11,61.31,15.14,54.93,15.14Z"/><path class="cls-1" d="M92.65,27.26c-2.71,2.07-6.42,2.43-10.83,2.43-1.33,0-2.75,0-4.22,0-.14-2.94-.09-7.21-.09-14.32s0-10.19.09-13.12A2,2,0,0,1,79,.27L79,0a16.74,16.74,0,0,1-2.62.18A16.94,16.94,0,0,1,73.7,0l0,.23A2,2,0,0,1,75.08,2.2c.14,2.94.09,6,.09,13.12s0,10.14-.09,13.08a2.06,2.06,0,0,1-1.42,2l0,.18a16.94,16.94,0,0,1,2.66-.18H91.55a18.59,18.59,0,0,1,1.33-3Z"/><path class="cls-1" d="M122,27.67c-1.51-3-2.52-5-5.83-12S110.14,2.94,108.9,0h-.64c-1.24,2.94-4,8.67-7.34,15.65S96.37,25.1,94.9,28a4.64,4.64,0,0,1-2.48,2.34l0,.18a14.67,14.67,0,0,1,2.48-.18,10.23,10.23,0,0,1,2.16.18l0-.18c-.6-.23-1.84-.69-1.24-2,.83-2.16,1.84-4.27,3.67-7.94h16.34c1.84,3.72,2.71,5.78,3.67,7.94.46,1.33-.51,1.7-1.19,2l0,.18a23.35,23.35,0,0,1,3.21-.18,22,22,0,0,1,3,.18l0-.18A5.88,5.88,0,0,1,122,27.67Zm-22-8.08c.55-1.15,1.19-2.43,1.88-3.95,2.8-5.74,4.41-9.45,5.87-12.53,1.38,3.07,2.52,5.69,5.83,12.53l1.93,3.95Z"/><path class="cls-1" d="M141.94.14c-.73,0-4.59,0-5.28.14l0,.18c.69,0,1.33.46,1.38,1.79.14,2.89.09,6,.09,13.08s0,10.1-.09,13.08a2.06,2.06,0,0,1-1.42,2l0,.18a16.94,16.94,0,0,1,2.66-.18,16.74,16.74,0,0,1,2.62.18l0-.18a2.06,2.06,0,0,1-1.42-2c-.14-3-.09-4.08-.09-11.24.5,0,.92,0,1.42,0,7.85,0,12.89-2.94,12.89-9C154.83,3.95,151,.14,141.94.14Zm.69,16.2c-.74,0-1.42,0-2.11-.09,0-6,0-12.67.09-15.37,7.48,0,11.7,1.33,11.7,7.34C152.31,13.13,149.47,16.34,142.63,16.34Z"/><path class="cls-1" d="M168.74,29.69c-1.51,0-3,0-4.45,0-.14-2.94-.09-7.21-.09-14.32v-.09c11.15,0,11.29.18,11.89,1.51l.18,0a8.06,8.06,0,0,1-.14-1.84,7.67,7.67,0,0,1,.14-1.79l-.18,0c-.5,1.15-.78,1.51-11.89,1.51,0-6.75,0-10.65.09-13.54,1.56-.09,3.12-.14,4.63-.14,4,0,7.62.46,9.87,2.34L179,3a12.64,12.64,0,0,1-.73-2.8H163A16.94,16.94,0,0,1,160.39,0l0,.23a2,2,0,0,1,1.42,1.93c.14,2.94.09,6,.09,13.12s0,10.14-.09,13.08a2.06,2.06,0,0,1-1.42,2l0,.18a16.94,16.94,0,0,1,2.66-.18h16.8a19,19,0,0,1,1.38-3l-.23-.14C178.24,29.32,173.65,29.69,168.74,29.69Z"/><path class="cls-1" d="M212,.27A11,11,0,0,1,209.9,0l0,.23a2.06,2.06,0,0,1,1.42,2c.14,2.89.27,6,.27,13.08,0,5.6,0,8.63,0,11.24L201.32,14.23C199.48,12,195,6.61,189.94.27h-2A8.87,8.87,0,0,1,186,0l0,.23a2.06,2.06,0,0,1,1.42,2c.14,2.89.09,6,.09,13.08s-.14,10.1-.28,13.08a2.06,2.06,0,0,1-1.42,2l0,.18a10.64,10.64,0,0,1,2.11-.18,10.49,10.49,0,0,1,2.07.18l0-.18a2.06,2.06,0,0,1-1.42-2c-.14-2.94-.27-6-.27-13.08s0-9.91,0-13c5.92,7.16,9.87,11.93,11.29,13.58s5.6,6.93,12.53,15.42h.37c-.14-3-.09-8.81-.09-16s.14-10.19.28-13.08a2.06,2.06,0,0,1,1.42-2l0-.23A10.56,10.56,0,0,1,212,.27Z"/><path class="cls-1" d="M246.75.27A11,11,0,0,1,244.64,0l0,.23a2.06,2.06,0,0,1,1.42,2c.14,2.89.28,6,.28,13.08,0,5.6,0,8.63,0,11.24L236.06,14.23c-1.84-2.2-6.29-7.62-11.38-14h-2A8.87,8.87,0,0,1,220.78,0l0,.23a2.06,2.06,0,0,1,1.42,2c.14,2.89.09,6,.09,13.08s-.14,10.1-.28,13.08a2.06,2.06,0,0,1-1.42,2l0,.18a10.64,10.64,0,0,1,2.11-.18,10.49,10.49,0,0,1,2.07.18l0-.18a2.06,2.06,0,0,1-1.42-2c-.14-2.94-.27-6-.27-13.08s0-9.91,0-13c5.92,7.16,9.87,11.93,11.29,13.58s5.6,6.93,12.53,15.42h.37c-.14-3-.09-8.81-.09-16s.14-10.19.28-13.08a2.06,2.06,0,0,1,1.42-2l0-.23A10.56,10.56,0,0,1,246.75.27Z"/><path class="cls-1" d="M280.76,27.67c-1.51-3-2.52-5-5.83-12S268.87,2.94,267.63,0H267c-1.24,2.94-4,8.67-7.34,15.65s-4.54,9.45-6,12.39a4.64,4.64,0,0,1-2.48,2.34l0,.18a14.67,14.67,0,0,1,2.48-.18,10.23,10.23,0,0,1,2.16.18l0-.18c-.6-.23-1.84-.69-1.24-2,.83-2.16,1.84-4.27,3.67-7.94h16.34c1.84,3.72,2.71,5.78,3.67,7.94.46,1.33-.51,1.7-1.19,2l0,.18a23.35,23.35,0,0,1,3.21-.18,22,22,0,0,1,3,.18l0-.18A5.88,5.88,0,0,1,280.76,27.67Zm-22-8.08c.55-1.15,1.19-2.43,1.88-3.95,2.8-5.74,4.41-9.45,5.87-12.53,1.38,3.07,2.52,5.69,5.83,12.53l1.93,3.95Z"/></svg>