<svg id="ea2y5wodfz2k1" xmlns="http://www.w3.org/2000/svg" xmlns:xlink="http://www.w3.org/1999/xlink" viewBox="0 0 114.460000 136.060000" shape-rendering="geometricPrecision" text-rendering="geometricPrecision"><style><![CDATA[#ea2y5wodfz2k2_tr {animation: ea2y5wodfz2k2_tr__tr 3000ms linear infinite normal forwards}@keyframes ea2y5wodfz2k2_tr__tr { 0% {transform: translate(57.224999px,68.055005px) rotate(0deg);animation-timing-function: cubic-bezier(0.420000,0,0.580000,1)} 23.333333% {transform: translate(57.224999px,68.055005px) rotate(720deg);animation-timing-function: cubic-bezier(0.420000,0,0.580000,1)} 50% {transform: translate(57.224999px,68.055005px) rotate(0deg);animation-timing-function: cubic-bezier(0.420000,0,0.580000,1)} 76.666667% {transform: translate(57.224999px,68.055005px) rotate(720deg);animation-timing-function: cubic-bezier(0.420000,0,0.580000,1)} 100% {transform: translate(57.224999px,68.055005px) rotate(0deg)} }]]></style><g id="ea2y5wodfz2k2_tr" transform="translate(57.224999,68.055005) rotate(0)"><g id="ea2y5wodfz2k2" transform="scale(0.700000,0.700000) translate(-57.224999,-68.055005)"><path id="ea2y5wodfz2k3" d="M19.860000,43C22.776195,43.000435,25.511847,41.587884,27.200000,39.210000C36.571381,25.956699,51.793156,18.077272,68.025000,18.077272C84.256844,18.077272,99.478619,25.956699,108.850000,39.210000C111.697028,43.291384,117.313616,44.292028,121.395000,41.445000C125.476384,38.597972,126.477028,32.981384,123.630000,28.900000C110.893847,10.806990,90.151152,0.041844,68.025000,0.041844C45.898848,0.041844,25.156153,10.806990,12.420000,28.900000C10.523403,31.657672,10.313723,35.240021,11.875650,38.200125C13.437577,41.160229,16.513098,43.009111,19.860000,43Z" transform="matrix(1 0 0 1 -10.80000000000000 0)" fill="rgb(29,29,27)" stroke="none" stroke-width="1"/><path id="ea2y5wodfz2k4" d="M116.190000,93.110000C113.273805,93.109565,110.538153,94.522116,108.850000,96.900000C99.478619,110.153301,84.256844,118.032728,68.025000,118.032728C51.793156,118.032728,36.571381,110.153301,27.200000,96.900000C24.352972,92.818616,18.736384,91.817972,14.655000,94.665000C10.573616,97.512028,9.572972,103.128616,12.420000,107.210000C25.156153,125.303010,45.898848,136.068156,68.025000,136.068156C90.151152,136.068156,110.893847,125.303010,123.630000,107.210000C125.526597,104.452328,125.736277,100.869979,124.174350,97.909875C122.612423,94.949771,119.536902,93.100889,116.190000,93.110000Z" transform="matrix(1 0 0 1 -10.80000000000000 0)" fill="rgb(29,29,27)" stroke="none" stroke-width="1"/></g></g></svg>